<svg width="129" height="128" viewBox="0 0 129 128" fill="none" xmlns="http://www.w3.org/2000/svg"><path d="M107 43v55H23V43M53.156 68L22.5 86.585m84.773 0L76.108 68.36" stroke="#007FED" stroke-width="4" stroke-miterlimit="10"/><path d="M57 41.186l5.176 5.176L72.528 36" stroke="#007FED" stroke-width="4" stroke-miterlimit="10"/><path fill-rule="evenodd" clip-rule="evenodd" d="M80.642 42a15.33 15.33 0 00-.352-4H109v13.292l-.971.582-41.953 25.18-1.028.618-1.03-.616-42.046-25.18-.972-.583V38h29.366a15.325 15.325 0 00-.351 4H25v7.026l40.045 23.982L105 49.028V42H80.642z" fill="#007FED"/><path d="M80.656 41.318a15.308 15.308 0 01-13.38 15.208c-.662.09-1.33.134-1.998.13a15.328 15.328 0 1115.378-15.338z" stroke="#007FED" stroke-width="4" stroke-miterlimit="10"/></svg>
