<svg width="128" height="128" fill="none" xmlns="http://www.w3.org/2000/svg"><path d="M74.69 32.176a10.69 10.69 0 11-.21-2.081c.142.684.212 1.382.21 2.08v0zM74.69 95.874a10.692 10.692 0 01-10.14 10.702 10.685 10.685 0 01-11.186-9.602 10.69 10.69 0 0121.116-3.182c.142.685.212 1.382.21 2.082zM106.277 64.215a10.691 10.691 0 01-10.139 10.703 10.69 10.69 0 1110.139-10.703v0z" stroke="#007FED" stroke-width="4" stroke-miterlimit="10"/><path d="M64.363 66.288a2.288 2.288 0 100-4.577 2.288 2.288 0 000 4.577z" fill="#007FED"/><path d="M42.863 64.215a10.69 10.69 0 11-.21-2.082c.142.685.212 1.383.21 2.082v0z" stroke="#007FED" stroke-width="4" stroke-miterlimit="10"/><path d="M35.21 53.065l18.28-18.28M74.21 93.065l18.28-18.28M74.35 34.647l18.28 18.28M35.35 74.647l18.28 18.28" stroke="#007FED" stroke-width="4" stroke-linecap="round" stroke-linejoin="round"/></svg>
